<?xml version="1.0" encoding="UTF-8" standalone="no"?>
<svg
   xmlns:dc="http://purl.org/dc/elements/1.1/"
   xmlns:cc="http://creativecommons.org/ns#"
   xmlns:rdf="http://www.w3.org/1999/02/22-rdf-syntax-ns#"
   xmlns:svg="http://www.w3.org/2000/svg"
   xmlns="http://www.w3.org/2000/svg"
   xmlns:sodipodi="http://sodipodi.sourceforge.net/DTD/sodipodi-0.dtd"
   xmlns:inkscape="http://www.inkscape.org/namespaces/inkscape"
   width="200"
   height="200"
   fill="#000000"
   version="1.1"
   x="0px"
   y="0px"
   viewBox="0 0 100 100"
   enable-background="new 0 0 100 100"
   xml:space="preserve"
   id="svg98"
   sodipodi:docname="app.svg"
   inkscape:export-filename="/home/martin/Dropbox/Coding/possumwood/resources/icons/app.png"
   inkscape:export-xdpi="23.040001"
   inkscape:export-ydpi="23.040001"
   inkscape:version="0.92.1 r15371"><metadata
     id="metadata104"><rdf:RDF><cc:Work
         rdf:about=""><dc:format>image/svg+xml</dc:format><dc:type
           rdf:resource="http://purl.org/dc/dcmitype/StillImage" /><dc:title></dc:title></cc:Work></rdf:RDF></metadata><defs
     id="defs102" /><sodipodi:namedview
     pagecolor="#ffffff"
     bordercolor="#666666"
     borderopacity="1"
     objecttolerance="10"
     gridtolerance="10"
     guidetolerance="10"
     inkscape:pageopacity="0"
     inkscape:pageshadow="2"
     inkscape:window-width="1920"
     inkscape:window-height="1025"
     id="namedview100"
     showgrid="false"
     inkscape:zoom="4.37"
     inkscape:cx="99.999"
     inkscape:cy="100"
     inkscape:window-x="0"
     inkscape:window-y="0"
     inkscape:window-maximized="1"
     inkscape:current-layer="svg98" /><g
     id="g4968"
     style="fill:#51dd14;fill-opacity:1"><g
       id="g4962"
       style="fill:#51dd14;fill-opacity:1"><path
         id="path4960"
         d="m 39.756,19.322 c -0.258,9.204 6.01,13.098 8.114,14.084 0.582,-1.917 1.104,-6.62 -0.311,-15.014 C 45.389,5.556 49.748,0 49.748,0 45.419,3.254 39.985,10.945 39.756,19.322 Z"
         inkscape:connector-curvature="0"
         style="fill:#51dd14;fill-opacity:1" /></g><g
       id="g4966"
       style="fill:#51dd14;fill-opacity:1"><path
         id="path4964"
         d="M 53.016,11.76 C 51.737,9.506 50.528,7.375 50.247,5.21 49.986,3.217 49.981,1.491 50.128,0.01 c 0,0 -3.737,5.703 -1.016,18.461 1.702,7.973 1.143,12.649 0.656,14.736 2,-1.109 6.609,-4.446 6.699,-11.623 0.051,-3.656 -1.733,-6.793 -3.451,-9.824 z"
         inkscape:connector-curvature="0"
         style="fill:#51dd14;fill-opacity:1" /></g></g><g
     id="g4978"
     style="fill:#51dd14;fill-opacity:1"><g
       id="g4972"
       style="fill:#51dd14;fill-opacity:1"><path
         id="path4970"
         d="m 21.98,38.628 c 6.328,6.689 13.516,5.012 15.701,4.22 C 36.74,41.084 33.781,37.385 26.844,32.452 16.23,24.907 15.388,17.902 15.388,17.902 14.626,23.26 16.222,32.54 21.98,38.628 Z"
         inkscape:connector-curvature="0"
         style="fill:#51dd14;fill-opacity:1" /></g><g
       id="g4976"
       style="fill:#51dd14;fill-opacity:1"><path
         id="path4974"
         d="m 26.013,23.908 c -2.498,-0.693 -4.859,-1.346 -6.591,-2.677 -1.595,-1.227 -2.818,-2.44 -3.76,-3.592 0,0 1.389,6.671 12.337,13.771 6.842,4.437 9.75,8.135 10.882,9.958 0.63,-2.201 1.535,-7.818 -3.477,-12.955 -2.554,-2.623 -6.03,-3.58 -9.391,-4.505 z"
         inkscape:connector-curvature="0"
         style="fill:#51dd14;fill-opacity:1" /></g></g><g
     id="g4988"
     style="fill:#51dd14;fill-opacity:1"><g
       id="g4982"
       style="fill:#51dd14;fill-opacity:1"><path
         id="path4980"
         d="m 23.343,63.507 c 9.204,0.257 13.098,-6.016 14.084,-8.116 -1.915,-0.58 -6.619,-1.105 -15.016,0.312 C 9.575,57.871 4.022,53.511 4.022,53.511 c 3.252,4.329 10.942,9.764 19.321,9.996 z"
         inkscape:connector-curvature="0"
         style="fill:#51dd14;fill-opacity:1" /></g><g
       id="g4986"
       style="fill:#51dd14;fill-opacity:1"><path
         id="path4984"
         d="m 15.786,50.245 c -2.26,1.274 -4.388,2.487 -6.559,2.77 -1.989,0.263 -3.715,0.263 -5.199,0.118 0,0 5.705,3.736 18.463,1.016 7.975,-1.703 12.649,-1.145 14.738,-0.655 -1.114,-1.999 -4.448,-6.611 -11.622,-6.699 -3.659,-0.05 -6.794,1.728 -9.821,3.45 z"
         inkscape:connector-curvature="0"
         style="fill:#51dd14;fill-opacity:1" /></g></g><g
     id="g4998"
     style="fill:#51dd14;fill-opacity:1"><g
       id="g4992"
       style="fill:#51dd14;fill-opacity:1"><path
         id="path4990"
         d="m 64.965,23.748 c -6.689,6.326 -5.013,13.517 -4.221,15.697 1.768,-0.942 5.464,-3.9 10.395,-10.833 C 78.684,17.999 85.692,17.153 85.692,17.153 80.334,16.392 71.055,17.99 64.965,23.748 Z"
         inkscape:connector-curvature="0"
         style="fill:#51dd14;fill-opacity:1" /></g><g
       id="g4996"
       style="fill:#51dd14;fill-opacity:1"><path
         id="path4994"
         d="m 79.688,27.781 c 0.692,-2.502 1.344,-4.861 2.677,-6.595 1.223,-1.595 2.438,-2.817 3.589,-3.758 0,0 -6.671,1.387 -13.771,12.337 -4.435,6.84 -8.136,9.75 -9.958,10.883 2.201,0.627 7.82,1.53 12.957,-3.48 2.623,-2.555 3.58,-6.027 4.506,-9.387 z"
         inkscape:connector-curvature="0"
         style="fill:#51dd14;fill-opacity:1" /></g></g><g
     id="g5008"
     style="fill:#51dd14;fill-opacity:1"><g
       id="g5002"
       style="fill:#51dd14;fill-opacity:1"><path
         id="path5000"
         d="M 76.07,44.44 C 66.863,44.181 62.968,50.452 61.984,52.555 63.898,53.137 68.605,53.66 77,52.242 89.836,50.076 95.391,54.43 95.391,54.43 92.139,50.105 84.447,44.67 76.07,44.44 Z"
         inkscape:connector-curvature="0"
         style="fill:#51dd14;fill-opacity:1" /></g><g
       id="g5006"
       style="fill:#51dd14;fill-opacity:1"><path
         id="path5004"
         d="m 83.629,57.703 c 2.256,-1.279 4.389,-2.49 6.557,-2.77 1.991,-0.26 3.716,-0.268 5.197,-0.119 0,0 -5.704,-3.738 -18.466,-1.016 -7.973,1.703 -12.644,1.145 -14.736,0.656 1.114,1.996 4.444,6.605 11.623,6.697 3.661,0.048 6.796,-1.727 9.825,-3.448 z"
         inkscape:connector-curvature="0"
         style="fill:#51dd14;fill-opacity:1" /></g></g><g
     id="g5018"
     style="fill:#51dd14;fill-opacity:1"><g
       id="g5012"
       style="fill:#51dd14;fill-opacity:1"><path
         id="path5010"
         d="m 58.738,12.367 c -1.891,4.583 0.518,7.748 1.389,8.645 0.662,-0.851 1.823,-3.119 2.718,-7.619 1.363,-6.88 4.622,-8.839 4.622,-8.839 -2.8,0.806 -7.011,3.64 -8.729,7.813 z"
         inkscape:connector-curvature="0"
         style="fill:#51dd14;fill-opacity:1" /></g><g
       id="g5016"
       style="fill:#51dd14;fill-opacity:1"><path
         id="path5014"
         d="M 66.861,11.1 C 66.65,9.718 66.449,8.414 66.72,7.268 c 0.249,-1.054 0.576,-1.923 0.933,-2.639 0,0 -2.973,2.154 -4.042,9.103 -0.67,4.336 -1.844,6.585 -2.49,7.542 1.221,-0.177 4.18,-0.973 5.598,-4.569 0.723,-1.83 0.429,-3.748 0.142,-5.605 z"
         inkscape:connector-curvature="0"
         style="fill:#51dd14;fill-opacity:1" /></g></g><g
     id="g5028"
     style="fill:#51dd14;fill-opacity:1"><g
       id="g5022"
       style="fill:#51dd14;fill-opacity:1"><path
         id="path5020"
         d="m 27.801,15.622 c 1.905,4.577 5.845,5.106 7.096,5.126 -0.137,-1.071 -0.917,-3.5 -3.468,-7.309 -3.897,-5.83 -2.98,-9.518 -2.98,-9.518 -1.41,2.553 -2.386,7.532 -0.648,11.701 z"
         inkscape:connector-curvature="0"
         style="fill:#51dd14;fill-opacity:1" /></g><g
       id="g5026"
       style="fill:#51dd14;fill-opacity:1"><path
         id="path5024"
         d="M 32.648,8.978 C 31.523,8.149 30.456,7.37 29.84,6.366 29.274,5.449 28.889,4.6 28.634,3.843 c 0,0 -0.577,3.624 3.577,9.291 2.598,3.545 3.353,5.964 3.574,7.101 0.736,-0.99 2.268,-3.645 0.729,-7.189 -0.787,-1.812 -2.349,-2.958 -3.866,-4.068 z"
         inkscape:connector-curvature="0"
         style="fill:#51dd14;fill-opacity:1" /></g></g><g
     id="g5038"
     style="fill:#51dd14;fill-opacity:1"><g
       id="g5032"
       style="fill:#51dd14;fill-opacity:1"><path
         id="path5030"
         d="m 10.44,44.092 c 4.585,1.889 7.742,-0.525 8.644,-1.394 -0.853,-0.658 -3.121,-1.819 -7.618,-2.715 -6.88,-1.368 -8.841,-4.622 -8.841,-4.622 0.808,2.8 3.64,7.008 7.815,8.731 z"
         inkscape:connector-curvature="0"
         style="fill:#51dd14;fill-opacity:1" /></g><g
       id="g5036"
       style="fill:#51dd14;fill-opacity:1"><path
         id="path5034"
         d="M 9.173,35.965 C 7.789,36.178 6.486,36.379 5.34,36.108 4.286,35.859 3.419,35.526 2.701,35.171 c 0,0 2.154,2.97 9.103,4.042 4.338,0.671 6.584,1.844 7.545,2.489 -0.181,-1.216 -0.975,-4.176 -4.574,-5.595 -1.829,-0.721 -3.747,-0.43 -5.602,-0.142 z"
         inkscape:connector-curvature="0"
         style="fill:#51dd14;fill-opacity:1" /></g></g><g
     id="g5048"
     style="fill:#51dd14;fill-opacity:1"><g
       id="g5042"
       style="fill:#51dd14;fill-opacity:1"><path
         id="path5040"
         d="m 85.596,33.041 c -4.576,1.904 -5.109,5.842 -5.129,7.096 1.072,-0.138 3.498,-0.92 7.311,-3.466 5.83,-3.904 9.52,-2.984 9.52,-2.984 -2.556,-1.411 -7.53,-2.384 -11.702,-0.646 z"
         inkscape:connector-curvature="0"
         style="fill:#51dd14;fill-opacity:1" /></g><g
       id="g5046"
       style="fill:#51dd14;fill-opacity:1"><path
         id="path5044"
         d="m 92.24,37.888 c 0.827,-1.126 1.605,-2.19 2.609,-2.809 0.919,-0.566 1.768,-0.952 2.525,-1.203 0,0 -3.625,-0.58 -9.295,3.571 -3.54,2.599 -5.959,3.356 -7.094,3.578 0.984,0.739 3.643,2.267 7.188,0.726 1.811,-0.786 2.957,-2.349 4.067,-3.863 z"
         inkscape:connector-curvature="0"
         style="fill:#51dd14;fill-opacity:1" /></g></g><path
     id="path5050"
     d="m 47.499,68.297 c 1.506,-1.159 3.108,-2.53 4.459,-4.012 3.798,-4.164 5.503,-10.854 5.503,-10.854 l -0.748,-0.719 c 0,0 -2.752,6.33 -7.165,9.836 -0.727,0.576 -1.505,1.119 -2.295,1.629 -0.515,-13.339 1.769,-23.413 2.434,-26.026 L 47.8,37.531 c 0,0 -5.425,13.624 -5.375,32.386 0.04,14.917 6.137,30.083 6.137,30.083 l 8.15,-0.417 c 0,0 -7.546,-14.501 -9.041,-29.34 -0.065,-0.655 -0.121,-1.302 -0.172,-1.946 z"
     inkscape:connector-curvature="0"
     style="fill:#828282;fill-opacity:1" /></svg>